<?xml version="1.0" encoding="utf-8"?>
<!-- Generated by Brett Duke -->
<!DOCTYPE svg PUBLIC "-//W3C//DTD SVG 1.1//EN" "http://www.w3.org/Graphics/SVG/1.1/DTD/svg11.dtd">
<svg preserveAspectRatio="xMidYMid" width="256px" height="256px" viewBox="0 0 256 256" xmlns="http://www.w3.org/2000/svg" version="1.1" xmlns:xlink="http://www.w3.org/1999/xlink">
<path fill="#ffffff" d="M86.1,144 M195.9,144 M64,216c0,13.3,10.7,24,24,24s24-10.7,24-24l0,0c0-13.3-10.7-24-24-24S64,202.7,64,216 z M86.1,144L71.9,30c-1-8-7.8-14-15.9-14H16C7.2,16,0,23.2,0,32s7.2,16,16,16h25.9l14.2,114c1,8,7.8,14,15.9,14h136 c7.1,0,13.4-4.7,15.4-11.6l32-112c2.4-8.5-2.5-17.4-11-19.8c-8.5-2.4-17.4,2.5-19.8,11l-1.3,4.4l-27.4,96H86.1z M160,216 c0,13.3,10.7,24,24,24s24-10.7,24-24l0,0c0-13.3-10.7-24-24-24S160,202.7,160,216z"/>
</svg>
